<?xml version="1.0" standalone="no"?>
<svg version="1.0"
    xmlns="http://www.w3.org/2000/svg" width="746.485860pt" height="686.774848pt" viewBox="0 0 746.485860 686.774848" preserveAspectRatio="xMidYMid meet">
    <g transform="translate(-139.014140,859.919875) scale(0.100000,-0.100000)" fill="#ff0000" stroke="none">
        <path d="M1843 8586 c-205 -41 -385 -214 -438 -421 -13 -52 -15 -401 -15
-2985 0 -2574 2 -2933 15 -2989 47 -197 203 -365 405 -434 l65 -22 3205 -3
c2302 -2 3223 0 3270 8 226 39 422 219 487 450 17 62 18 183 18 2995 0 2818
-1 2932 -18 2990 -52 166 -167 296 -330 370 -126 58 88 55 -3397 54 -2480 -1
-3219 -4 -3267 -13z m6511 -357 c58 -16 139 -101 154 -161 9 -35 12 -387 12
-1372 l0 -1326 -3395 0 -3395 0 2 1353 c3 1345 3 1352 24 1391 24 48 77 92
130 111 33 12 543 14 3234 15 2266 0 3206 -3 3234 -11z m183 -251 c-2 -13 -4
-5 -4 17 -1 22 1 32 4 23 2 -10 2 -28 0 -40z m0 -2470 c-2 -18 -4 -4 -4 32 0
36 2 50 4 33 2 -18 2 -48 0 -65z m-19 -1850 l-3 -1383 -29 -52 c-15 -28 -47
-64 -70 -81 -86 -61 168 -57 -3286 -57 -2960 0 -3169 1 -3220 17 -31 10 -74
33 -96 52 -23 20 -43 33 -46 31 -2 -2 -4 4 -5 13 -1 9 -8 35 -17 57 -13 35
-15 196 -16 1413 l0 1372 3395 0 3395 0 -2 -1382z"/>
        <path d="M2845 7794 c-49 -14 -52 -25 -57 -204 -4 -135 -8 -174 -22 -194 l-16
-26 -269 0 c-330 0 -305 14 -309 -168 -4 -147 6 -198 44 -212 14 -6 135 -10
270 -10 213 0 244 -2 244 -15 0 -33 -33 -174 -62 -265 -68 -213 -168 -372
-345 -547 -68 -67 -123 -130 -123 -140 0 -10 8 -31 19 -48 32 -53 150 -173
176 -179 31 -8 49 1 150 78 180 137 310 294 405 491 75 155 114 273 154 465
l32 155 216 3 c194 2 218 1 234 -15 15 -16 16 -35 10 -200 -16 -466 -55 -593
-195 -641 -19 -7 -83 -12 -142 -12 -148 0 -149 -1 -149 -156 0 -63 5 -124 10
-134 6 -11 27 -24 48 -30 57 -15 298 -13 365 5 198 51 339 204 381 410 25 120
56 648 56 945 0 150 -2 170 -19 191 l-19 24 -369 5 -368 5 2 25 c1 14 6 87 13
163 12 154 8 191 -23 212 -23 14 -302 30 -342 19z"/>
        <path d="M6400 7577 c-51 -26 -50 -6 -50 -869 l0 -807 24 -28 24 -28 799 -3
c744 -2 800 -1 833 15 25 13 37 26 40 48 11 57 0 1626 -11 1646 -5 11 -21 24
-35 29 -41 16 -1593 13 -1624 -3z m1268 -399 c9 -9 12 -126 12 -464 0 -393 -2
-453 -15 -464 -12 -10 -97 -13 -353 -15 -408 -2 -539 4 -552 25 -15 24 -13
903 2 918 17 17 889 17 906 0z"/>
        <path d="M4412 7548 c-34 -17 -44 -74 -40 -229 2 -117 6 -141 21 -156 16 -16
47 -19 310 -23 l291 -5 14 -25 c19 -37 13 -849 -7 -873 -12 -15 -51 -17 -371
-17 l-359 0 -21 -27 c-20 -26 -21 -37 -18 -170 3 -121 6 -145 21 -160 17 -17
69 -18 905 -21 620 -2 895 1 913 9 41 16 49 48 49 185 0 120 -7 159 -34 176
-6 4 -154 8 -328 8 -305 0 -319 1 -338 20 -19 19 -20 33 -20 444 0 373 2 426
16 440 13 14 52 16 269 16 l254 0 20 26 c19 24 21 40 21 184 0 140 -2 160 -19
181 l-19 24 -754 2 c-529 1 -760 -1 -776 -9z"/>
        <path d="M6220 4602 c-202 -4 -205 -9 -146 -186 33 -99 274 -788 376 -1076 28
-80 101 -287 161 -460 60 -173 117 -326 127 -340 11 -13 30 -28 43 -31 44 -13
491 -9 529 4 40 14 -3 -103 370 997 111 327 234 687 272 800 38 113 70 218 70
234 -1 51 -19 59 -134 59 -280 -1 -297 -2 -317 -22 -11 -11 -57 -137 -111
-303 -386 -1195 -423 -1308 -430 -1308 -3 0 -43 116 -89 258 -110 344 -287
891 -368 1137 -36 110 -73 207 -82 216 -20 21 -77 25 -271 21z"/>
        <path d="M2255 4575 l-25 -24 0 -996 0 -996 25 -25 25 -25 498 4 c464 3 503 5
592 25 306 69 519 221 650 465 88 162 120 310 120 547 0 311 -67 521 -227 707
-156 183 -407 303 -694 333 -56 5 -290 10 -521 10 l-419 0 -24 -25z m895 -376
c255 -31 423 -164 502 -396 27 -77 31 -106 36 -229 4 -121 1 -152 -17 -225
-30 -120 -65 -184 -146 -265 -74 -75 -149 -118 -261 -150 -77 -22 -556 -33
-579 -14 -13 11 -15 103 -15 645 0 497 3 634 13 638 23 10 383 7 467 -4z"/>
        <path d="M4461 4574 c-21 -27 -21 -30 -21 -1019 0 -989 0 -992 21 -1019 l20
-26 670 0 c656 0 669 0 689 20 18 18 20 33 20 175 0 152 -1 156 -25 180 l-24
25 -445 0 c-433 0 -446 1 -456 20 -7 12 -9 88 -8 202 l3 182 25 13 c19 10 119
13 406 13 312 0 384 3 400 14 17 13 19 29 22 152 2 75 1 153 -3 171 -11 61
-25 63 -459 63 -341 0 -385 2 -390 16 -11 27 -7 414 4 435 10 18 26 19 450 19
427 0 441 1 460 20 18 18 20 33 20 175 0 142 -2 157 -20 175 -20 20 -33 20
-679 20 l-660 0 -20 -26z"/>
    </g>
</svg>
